<?xml version="1.0" encoding="UTF-8" standalone="no"?>
<!-- Created with Inkscape (http://www.inkscape.org/) -->

<svg
   version="1.1"
   id="svg1"
   width="688.85059"
   height="668.73785"
   viewBox="0 0 688.85059 668.73785"
   sodipodi:docname="drake.png"
   inkscape:version="1.4.3 (0d15f75042, 2025-12-25)"
   xmlns:inkscape="http://www.inkscape.org/namespaces/inkscape"
   xmlns:sodipodi="http://sodipodi.sourceforge.net/DTD/sodipodi-0.dtd"
   xmlns="http://www.w3.org/2000/svg"
   xmlns:svg="http://www.w3.org/2000/svg">
  <defs
     id="defs1" />
  <sodipodi:namedview
     id="namedview1"
     pagecolor="#ffffff"
     bordercolor="#000000"
     borderopacity="0.25"
     inkscape:showpageshadow="2"
     inkscape:pageopacity="0.0"
     inkscape:pagecheckerboard="0"
     inkscape:deskcolor="#d1d1d1"
     inkscape:zoom="0.75944798"
     inkscape:cx="607.01985"
     inkscape:cy="247.54822"
     inkscape:window-width="1920"
     inkscape:window-height="1007"
     inkscape:window-x="0"
     inkscape:window-y="0"
     inkscape:window-maximized="1"
     inkscape:current-layer="g1" />
  <g
     inkscape:groupmode="layer"
     inkscape:label="Image"
     id="g1"
     transform="translate(-50.149405,-49.262143)">
    <path
       id="path3"
       style="fill:#ff0000;stroke:none"
       d="M 330.71283,714.75 C 338.00751,706.78817 341.13699,688.49563 337,678 c -1.1,-2.79072 -2,-7.14175 -2,-9.66894 0,-3.93657 -0.49062,-5.05762 -3.42436,-7.82449 -1.8834,-1.77628 -3.5709,-3.961 -3.75,-4.85494 -0.38027,-1.89801 8.98262,-15.42539 14.42436,-20.84013 5.72251,-5.69411 5.04475,-12.8115 -1.21998,-12.8115 -2.8158,0 -6.83595,3.13752 -25.94663,20.25 L 303.07813,653 h -11.81656 c -9.16297,0 -12.32434,0.35566 -14.07773,1.58379 l -2.26117,1.58378 2.55031,4.56301 c 2.20317,3.9419 2.40029,4.9854 1.44815,7.66621 -1.47323,4.14797 0.0812,8.02589 4.22794,10.54767 1.7594,1.06996 4.63389,4.27181 6.38775,7.11523 3.41315,5.53352 10.63967,11.94031 13.46805,11.94031 1.13747,0 2.33355,1.61496 3.51796,4.75 2.30051,6.0892 5.82541,11.31847 8.70868,12.91948 1.24767,0.69281 4.77755,1.2756 7.84418,1.29508 4.53212,0.0288 5.96151,-0.38568 7.63714,-2.21456 z M 285.25,650.31477 c 2.0625,0.2722 3.75,0.28132 3.75,0.0203 0,-0.26107 -1.37122,-2.46766 -3.04715,-4.90354 -4.65153,-6.76077 -10.42662,-9.12267 -14.12411,-5.77649 -2.2389,2.02617 -2.28242,3.59019 -0.24815,8.91685 l 1.58058,4.1387 4.16942,-1.44534 c 2.29317,-0.79494 5.85691,-1.22263 7.91941,-0.95043 z m -10.57879,-56.84044 c 4.28762,-1.43931 8.30415,-3.03892 8.92562,-3.55469 0.62147,-0.51577 1.42129,-3.41668 1.77738,-6.44646 0.94068,-8.00377 3.65794,-14.32956 10.11137,-23.53928 3.13946,-4.48035 6.3311,-10.01085 7.09252,-12.29 1.3239,-3.96282 4.76173,-28.6374 4.08434,-29.3148 -0.17918,-0.17918 -1.79175,1.71553 -3.58347,4.21047 -4.63893,6.45959 -13.85843,13.79084 -22.84499,18.16609 -6.68079,3.25265 -8.61913,3.74931 -14.23398,3.64717 -17.10656,-0.31122 -29.45571,-8.64018 -39.0727,-26.35283 -1.31348,-2.41917 -1.38023,-2.32217 -2.06454,3 -0.38895,3.025 -1.00079,11.35 -1.35965,18.5 -0.7849,15.63875 -2.2123,21.25516 -8.33572,32.79879 l -4.66739,8.79878 2.5,1.93595 c 5.48429,4.24691 18.45784,10.17886 26.25682,12.00551 11.27065,2.63977 24.65051,2.04861 35.41439,-1.5647 z M 275,494.82549 c -6.1068,-2.25216 -16.10572,-2.81648 -25.25,-1.42506 -7.63199,1.1613 -7.70165,-0.73238 -0.0832,-2.26238 11.83444,-2.37669 28.86897,-0.23548 34.98414,4.39745 1.71544,1.29964 1.63225,1.39791 -1.15092,1.35963 -1.65,-0.0227 -5.475,-0.95403 -8.5,-2.06964 z m 10.29466,15.98167 c 1.24514,-1.66774 2.10351,-4.89834 2.4507,-9.22363 0.64529,-8.03894 -0.57618,-9.78023 -10.07973,-14.36931 -8.81062,-4.25449 -15.78716,-4.71735 -24.34061,-1.61489 -8.98252,3.25809 -10.92813,4.6662 -11.68647,8.45794 -1.30287,6.51432 -0.77603,9.80654 1.844,11.52325 2.36662,1.55067 2.62706,1.50504 5.57707,-0.97724 3.97355,-3.34352 6.69374,-3.98164 14.27642,-3.34907 7.68173,0.64083 11.33098,2.28297 12.12771,5.45738 0.75071,2.99106 5.15077,7.58357 6.75381,7.04922 0.63841,-0.2128 2.02311,-1.54195 3.0771,-2.95365 z M 259.46317,461.25 c 0.37244,-0.9625 1.17287,-3.8875 1.77874,-6.5 0.60587,-2.6125 1.52438,-4.75 2.04113,-4.75 1.21179,0 -0.005,6.56184 -1.89445,10.21544 -1.58189,3.05903 -3.00456,3.82346 -1.92542,1.03456 z m 31.09721,-0.27211 c -2.71679,-1.06071 -5.61063,-2.59956 -6.43075,-3.41968 -1.3215,-1.32151 -1.04398,-1.42422 2.43962,-0.90297 5.00309,0.74862 12.43075,3.90864 12.43075,5.28853 0,1.5449 -2.84178,1.21967 -8.43962,-0.96588 z m -52.25109,-4.32984 c 2.38019,-1.91442 13.79872,-3.94004 15.06608,-2.67268 1.41926,1.41926 -3.91284,3.24211 -10.87537,3.7179 -5.37862,0.36756 -5.81263,0.25931 -4.19071,-1.04522 z M 305,450.88144 C 300.39807,446.87322 293.09898,444 287.5185,444 284.0556,444 282,442.47539 282,439.90699 c 0,-3.47383 5.59295,-3.82435 13.21298,-0.82809 6.62902,2.60659 11.33487,6.14605 13.34847,10.03993 2.7312,5.28156 1.29489,5.99242 -3.56145,1.76261 z m -73,-4.0285 c 0,-2.59961 5.57694,-8.21297 10.38297,-10.45078 7.85378,-3.65692 15.61703,-2.85461 15.61703,1.61397 0,2.11453 -1.21075,2.53031 -9.85841,3.38545 -3.33988,0.33026 -7.38944,1.67611 -10.75,3.57269 C 234.36619,446.68171 232,447.50619 232,446.85294 Z M 320.19072,505.25 c 3.88328,-4.16352 4.88143,-6.72261 5.50003,-14.10123 0.47279,-5.63946 0.27212,-7.04304 -1.22029,-8.53545 -1.00738,-1.00739 -2.73215,-1.60529 -3.95591,-1.37135 -2.09512,0.40051 -2.21078,-0.0525 -3.36085,-13.16359 -1.36664,-15.58004 -5.24186,-36.41439 -7.63329,-41.03892 -3.40706,-6.58853 -18.84902,-13.67654 -32.98909,-15.14233 -19.64643,-2.03658 -34.20853,2.81458 -41.94057,13.97192 -3.58536,5.17368 -7.12586,15.84542 -8.52235,25.68801 C 222.92896,473.68412 223.12624,473 219.8849,473 c -3.93542,0 -5.25209,3.48246 -4.53702,12 0.57854,6.8914 3.25743,16 4.70568,16 0.47606,0 0.99625,-3.7125 1.156,-8.25 l 0.29044,-8.25 2.7797,5.66038 c 2.71007,5.51858 8.5378,12.35545 9.61422,11.27903 0.29572,-0.29572 0.82478,-3.66994 1.17569,-7.49826 0.785,-8.56421 2.05662,-10.14709 11.71088,-14.57743 l 7.28049,-3.34102 -1.6848,-2.57133 c -1.56744,-2.39222 -1.56957,-2.68655 -0.0305,-4.22563 1.53908,-1.53908 1.65431,-1.50008 1.65431,0.55997 0,1.84705 0.55811,2.21429 3.36514,2.21429 1.87593,0 4.51597,0.90524 5.96565,2.04556 2.42837,1.91015 2.76218,1.93963 5.0429,0.44525 1.46023,-0.95679 3.97472,-1.47777 6.25294,-1.29557 3.49664,0.27965 3.85432,0.0691 4.34196,-2.55559 0.5223,-2.81131 0.56168,-2.82682 2.29673,-0.90434 1.69084,1.87351 1.6803,2.06411 -0.25,4.51809 -1.10843,1.40913 -2.01532,2.75378 -2.01532,2.98811 0,0.23433 2.48953,2.14066 5.53229,4.23629 9.17354,6.31806 10.46771,8.43207 10.46771,17.09893 0,4.0828 0.2127,7.42327 0.47266,7.42327 0.25997,0 2.89153,-1.14528 5.84791,-2.54506 3.52271,-1.66792 6.52563,-4.08041 8.71319,-7 1.83587,-2.45022 3.52499,-4.45494 3.75359,-4.45494 0.2286,0 0.10196,3.1234 -0.28141,6.94088 -0.38338,3.81749 -0.40249,7.41749 -0.0425,8 1.15706,1.87217 4.0921,1.13445 6.72726,-1.69088 z M 50.305565,716.35391 c -0.347416,-0.90535 -0.0954,-6.25951 0.560045,-11.89813 1.324654,-11.39572 3.830064,-18.52018 10.665381,-30.32841 2.428353,-4.19505 7.356432,-14.46662 10.951285,-22.8257 C 79.088916,635.9393 80.585267,633.13469 91.316842,616 102.0101,598.9265 104.39479,595.81868 112.76385,588.04946 c 8.18695,-7.60015 8.25345,-7.70138 7.14621,-10.87762 -2.12279,-6.08943 3.50001,-10.85173 20.00649,-16.94473 16.24825,-5.99768 19.02965,-8.42052 33.69547,-29.35165 11.86863,-16.93896 22.76773,-29.68344 27.7988,-32.50554 2.11257,-1.18502 5.53704,-2.42578 7.60991,-2.75724 l 3.76887,-0.60267 -0.1448,-10.38793 c -0.12454,-8.9345 0.12174,-10.68414 1.76019,-12.50501 1.04774,-1.16439 2.73524,-2.11707 3.75,-2.11707 1.53782,0 1.84501,-0.80145 1.84501,-4.81358 0,-8.40927 2.83595,-26.69618 4.98598,-32.15086 5.76595,-14.62831 19.43474,-26.382 35.47412,-30.5039 17.2692,-4.43794 34.04771,0.75705 47.94656,14.84529 8.03836,8.1479 12.84995,16.36757 15.05356,25.71612 1.7806,7.554 1.97399,19.19076 0.45544,27.40535 -0.9917,5.36461 -0.91627,5.99969 0.88296,7.43366 3.54424,2.82473 4.42562,5.93354 4.05487,14.30247 l -0.35349,7.97929 5.5,1.73024 c 12.17075,3.82878 30.74206,15.35467 38.16549,23.6866 1.81573,2.03794 4.81314,15.01027 4.87013,21.07716 0.0196,2.08569 0.68756,6.49216 1.48438,9.79216 1.86579,7.72713 1.90837,19.77095 0.0824,23.30202 -0.76869,1.48649 -2.34369,3.55888 -3.5,4.60533 -4.54301,4.11137 -2.67474,7.02542 9.65132,15.05372 3.98953,2.5985 10.17703,7.92756 13.75,11.84236 l 6.4963,7.11783 -0.0196,9.03937 c -0.0108,4.97165 0.16083,26.80422 0.38134,48.51681 0.22051,21.7126 0.18118,40.0501 -0.0874,40.75 C 404.88553,717.7407 390.56545,718 334.99697,718 h -69.78905 l -0.75261,-14.75 c -0.76801,-15.05184 -0.41859,-19.18646 3.41515,-40.41122 1.53153,-8.47901 1.5762,-10.24036 0.36505,-14.39403 -1.62377,-5.56873 -1.02657,-8.80463 2.17404,-11.77998 1.28076,-1.19062 2.66317,-3.73977 3.07201,-5.66477 0.40885,-1.925 2.96564,-10.86461 5.68177,-19.8658 2.71612,-9.00119 4.73263,-16.57157 4.48113,-16.82307 -0.2515,-0.2515 -4.21189,0.73951 -8.80087,2.20226 -12.00567,3.82682 -24.57968,4.37799 -36.22843,1.58804 -10.2107,-2.44553 -19.16988,-6.45393 -25.88443,-11.58086 -5.41259,-4.13282 -4.59412,-5.25384 -7.2861,9.97943 -0.87475,4.95 -2.24626,11.59247 -3.04778,14.76104 -1.37795,5.44726 -1.31799,6.37319 1.101,17 1.40708,6.18143 3.00493,16.18896 3.55077,22.23896 0.54584,6.05 1.70272,15.14585 2.57084,20.21301 0.99332,5.79797 1.3216,11.0801 0.88563,14.25 -0.79613,5.78857 -0.28488,6.05539 4.88296,2.5484 2.01693,-1.36872 4.99865,-3.17714 6.62605,-4.0187 4.67486,-2.41746 9.9859,-7.5213 9.9859,-9.5963 0,-2.75719 -1.622,-2.3267 -4.15812,1.10359 -1.94431,2.62982 -4.84188,4.07537 -4.84188,2.41555 0,-0.32145 2.025,-3.16196 4.5,-6.31224 2.475,-3.15028 4.5,-6.5014 4.5,-7.44693 0,-2.19067 2.60874,-3.22598 4.39444,-1.74398 1.09577,0.9094 1.69194,0.32897 2.98727,-2.90836 0.89006,-2.22448 1.61829,-5.33726 1.61829,-6.91729 0,-3.14468 2.2432,-4.70357 3.89841,-2.70916 0.7368,0.8878 0.65614,1.82799 -0.27373,3.19056 -2.58586,3.78916 -4.86584,12.03781 -5.17238,18.71295 l -0.31142,6.7811 7.17956,7.37043 c 3.94876,4.05374 8.07956,7.56331 9.17956,7.79905 1.7882,0.38323 1.70496,0.57125 -0.78602,1.7754 -2.66984,1.29061 -2.98261,1.15699 -7.5,-3.20426 -2.59269,-2.50307 -6.73898,-5.69617 -9.21398,-7.09577 l -4.5,-2.54472 -9.39486,4.41883 C 218.93797,689.01152 213.69002,691 212.44304,691 c -2.52002,0 -2.47836,-0.15837 -4.537,17.25 l -1.15299,9.75 h -77.90791 c -71.402072,0 -77.960658,-0.13746 -78.539575,-1.64609 z M 580,514.94292 v -5.84311 l 5.75,-0.29991 5.75,-0.2999 V 483 457.5 l -3.25,-0.31336 -3.25,-0.31336 v 9.06336 c 0,7.38965 -0.277,9.06336 -1.5,9.06336 -1.22222,0 -1.5,-1.66667 -1.5,-9 0,-7.22675 -0.28787,-9 -1.46107,-9 -1.14809,0 -1.52296,1.87435 -1.75,8.75 -0.23057,6.9827 -0.5919,8.75 -1.78893,8.75 -1.19703,0 -1.55836,-1.7673 -1.78893,-8.75 -0.22704,-6.87565 -0.60191,-8.75 -1.75,-8.75 -1.1732,0 -1.46107,1.77325 -1.46107,9 0,7.22675 -0.28787,9 -1.46107,9 -1.14809,0 -1.52296,-1.87435 -1.75,-8.75 -0.23057,-6.9827 -0.5919,-8.75 -1.78893,-8.75 -1.19703,0 -1.55836,1.7673 -1.78893,8.75 -0.22704,6.87565 -0.60191,8.75 -1.75,8.75 -1.1732,0 -1.46107,-1.77325 -1.46107,-9 0,-7.33333 -0.27778,-9 -1.5,-9 -1.22312,0 -1.5,1.67481 -1.5,9.07332 0,8.10684 -0.18641,9.03635 -1.75,8.7262 -1.50135,-0.29781 -1.75,-1.54877 -1.75,-8.8043 0,-7.25734 -0.24827,-8.50572 -1.75,-8.79951 -1.56324,-0.30582 -1.75,0.62595 -1.75,8.73097 0,7.39851 -0.27688,9.07332 -1.5,9.07332 -1.22222,0 -1.5,-1.66667 -1.5,-9 v -9 h -3 -3 v 26 26 h 5.5 5.5 l 0.0153,4.75 c 0.008,2.6125 0.36247,5.2963 0.78677,5.96401 0.72437,1.13989 20.77159,2.33613 23.94792,1.429 0.81665,-0.23323 1.25,-2.38267 1.25,-6.20009 z m 14.69743,163.55786 c -9.16434,-2.51957 -19.41937,-9.99286 -25.80079,-18.80216 C 564.98931,654.3047 561,641.36509 561,634.08529 v -5.81147 l -6.55601,-0.52625 c -3.60581,-0.28944 -6.77505,-0.7453 -7.04276,-1.01301 -0.26772,-0.26772 -0.75139,-2.11751 -1.07484,-4.11066 L 545.73832,619 h 8.13084 c 8.00623,0 8.13084,-0.0383 8.13084,-2.5 0,-2.47905 -0.0744,-2.5 -8.88342,-2.5 h -8.88343 l -0.5246,-2.7443 c -0.28854,-1.50937 -0.31444,-3.08437 -0.0576,-3.5 0.25687,-0.41564 4.49049,-0.7557 9.40803,-0.7557 8.87038,0 8.94098,-0.0197 8.94098,-2.5 0,-2.4982 -0.007,-2.5 -9.89301,-2.5 C 541.6748,602 541,601.69126 541,596.91821 541,595.14905 541.8159,595 551.5,595 c 10.49617,0 10.5,-9e-4 10.5,-2.46725 0,-2.46003 -0.0329,-2.46807 -11.25,-2.75 L 539.5,589.5 539.18664,586.25 538.87328,583 H 550.43664 562 v -2.46922 -2.46922 L 549.75,577.78078 537.5,577.5 l -1.25163,-5 c -3.75024,-14.98136 -5.29719,-29.15611 -5.02354,-46.03099 L 531.5,509.5 l 3.73404,-0.30941 3.73403,-0.30942 0.26597,-27.19058 L 539.5,454.5 h 27.5 27.5 l 0.5,27 0.5,27 3.5,0.5 3.5,0.5 0.32104,17.5 c 0.285,15.53524 0.013,19.24022 -2.42294,33 -1.5092,8.525 -3.17126,16.0625 -3.69349,16.75 -0.6617,0.87112 -4.39808,1.25 -12.32705,1.25 H 573 v 2.5 2.5 h 10.83333 c 5.95834,0 11.05578,0.22244 11.32765,0.49431 0.27187,0.27187 0.29579,1.84687 0.0532,3.5 L 594.773,590 H 583.8865 573 v 2.5 2.5 h 10.60699 c 9.26134,0 10.52998,0.20067 10,1.58179 -0.33385,0.86998 -0.60699,2.44498 -0.60699,3.5 C 593,601.84486 592.19121,602 583,602 h -10 v 2.5 c 0,2.48148 0.0667,2.5 9,2.5 8.20542,0 9,0.16935 9,1.91821 C 591,613.57995 590.20591,614 581.39301,614 573.10713,614 573,614.0319 573,616.5 c 0,2.45768 0.135,2.5 7.975,2.5 h 7.975 l -0.60724,3.25 c -0.87839,4.70127 -1.76767,5.25 -8.50822,5.25 h -6.06547 l 0.45275,7.0547 c 0.80374,12.52399 7.38123,23.13867 17.97463,29.00722 4.7752,2.64538 6.20015,2.93654 14.30355,2.92259 11.42948,-0.0197 17.25449,-2.41696 24.50769,-10.08616 9.96579,-10.53735 9.40664,-6.44217 10.09006,-73.89835 0.3772,-37.23117 1.00275,-60.70444 1.69542,-63.61954 4.17191,-17.55741 11.82028,-31.19917 24.82978,-44.28681 9.43686,-9.49355 27.61343,-19.32856 39.12369,-21.16913 3.84115,-0.61422 3.9812,-0.53531 4.60746,2.596 0.35525,1.77621 0.6459,4.67445 0.6459,6.44053 0,3.07741 -0.25313,3.28142 -6.08199,4.90199 -12.21821,3.39697 -25.97557,12.20252 -34.31143,21.96141 -5.99742,7.02126 -12.00776,18.51479 -14.73391,28.17555 -2.19183,7.76727 -2.27464,9.7164 -2.84658,67 -0.5102,51.0997 -0.80603,59.54863 -2.20933,63.09724 -6.22225,15.73463 -16.71379,26.09055 -30.90772,30.5082 -7.11205,2.21352 -18.94906,2.39205 -26.21161,0.39534 z M 227.17581,240.25 c 0.81719,-0.9625 2.748,-3.95934 4.29071,-6.65965 1.5427,-2.7003 6.56591,-8.92984 11.16269,-13.84341 12.8281,-13.71215 16.38485,-22.85609 16.35483,-42.04616 -0.009,-5.61043 0.73896,-14.55626 1.66163,-19.87963 1.57195,-9.06939 1.57151,-9.84075 -0.007,-12.25 -3.64017,-5.55559 -11.15633,-1.56939 -13.59457,7.2099 -0.56807,2.04542 -1.03537,7.91895 -1.03843,13.05228 -0.004,6.62309 -0.34174,9.22128 -1.16323,8.94745 -0.63671,-0.21223 -3.20105,-4.16408 -5.69853,-8.78189 -5.30398,-9.80698 -8.94045,-24.48386 -10.03435,-40.49889 -0.67094,-9.82281 -3.04725,-17.4114 -5.70809,-18.22841 -0.60424,-0.18554 -2.10787,0.47991 -3.3414,1.47876 -2.2196,1.79732 -2.23151,1.94496 -1.152,14.28287 0.59994,6.85673 1.99107,15.31937 3.09141,18.80587 2.28132,7.22856 2.54458,10.5089 0.79661,9.92624 -1.38989,-0.46329 -5.4221,-15.66726 -6.30273,-23.76533 -0.87382,-8.03538 -3.51849,-20.10205 -5.06789,-23.1229 -1.65192,-3.22074 -4.62474,-4.12619 -7.32881,-2.23219 -2.48233,1.7387 -2.59364,1.03158 4.62076,29.35509 7.00184,27.48903 6.68796,26 5.48078,26 -1.36298,0 -4.61323,-10.05169 -7.27547,-22.5 -2.54843,-11.9162 -5.01263,-17.2335 -8.37797,-18.07814 -4.82484,-1.21096 -5.62962,1.43043 -3.03832,9.9722 0.81658,2.69173 1.90487,9.35963 2.41842,14.81754 0.63947,6.7962 1.50752,10.73224 2.75448,12.48982 5.08622,7.16895 7.28477,10.97236 7.30187,12.63191 0.034,3.29756 -2.3072,1.15637 -5.90286,-5.39868 -3.82422,-6.97169 -11.42644,-15.31553 -13.37102,-14.6754 -2.41135,0.79378 -1.74177,4.71666 2.11629,12.39863 2.16618,4.31316 5.77119,13.02678 8.01115,19.36359 3.47116,9.81985 4.16286,13.14291 4.68346,22.5 0.90885,16.33568 1.84729,19.4495 8.61088,28.57154 4.98345,6.72119 10.61207,11.88846 12.96599,11.90325 0.32726,0.002 1.26362,-0.78376 2.0808,-1.74626 z M 178.5,222.34071 c 1.65,-0.90583 4.35,-2.37686 6,-3.26895 5.83951,-3.15718 5.77665,-2.99264 2.54801,-6.66986 -1.66051,-1.89122 -3.3043,-4.57484 -3.65285,-5.96361 -0.93228,-3.71449 1.93115,-10.20244 7.61694,-17.25843 2.74334,-3.40446 4.9879,-6.80667 4.9879,-7.56047 0,-0.75379 -1.20642,-4.01402 -2.68093,-7.24496 l -2.68093,-5.87443 -0.70612,5.2194 c -0.68247,5.04465 -2.84644,9.37172 -8.89094,17.77829 -1.58093,2.19874 -3.63757,6.69874 -4.57032,10 -0.93275,3.30127 -2.17486,7.30021 -2.76025,8.88653 -1.21213,3.2847 -8.88862,8.61578 -12.40629,8.61578 -4.00853,0 -2.49914,1.6864 2.94578,3.29126 6.91605,2.03846 10.60365,2.05126 14.25,0.0495 z m -31.00117,-18.42696 c 5.73148,-3.23465 10.84499,-8.3823 10.21226,-10.28047 -0.2044,-0.61322 -1.76667,-1.92968 -3.47169,-2.92547 -3.09945,-1.81018 -3.10183,-1.80977 -12.41972,2.12402 -5.12583,2.164 -10.33218,4.24244 -11.56968,4.61875 -2.70625,0.82294 -2.8268,1.73318 -0.5,3.77544 2.23996,1.96603 9.36469,5.67213 11.01515,5.72978 0.69583,0.0243 3.72599,-1.34461 6.73368,-3.04205 z M 113.54371,185.0483 c -1.14938,-1.27005 -1.94984,-4.23874 -2.2919,-8.5 -0.66097,-8.23432 1.22156,-8.91975 2.14246,-0.78008 0.35893,3.17253 1.29037,6.99753 2.06986,8.5 1.64934,3.1791 0.62662,3.59453 -1.92042,0.78008 z m 20.24877,-5.08775 c 0.2949,-2.00926 -0.15715,-3.70603 -1.33373,-5.00613 -2.26695,-2.50495 -1.20781,-3.61674 2.03702,-2.1383 2.95036,1.34427 3.46347,6.08178 0.9328,8.61245 -2.09647,2.09647 -2.15194,2.04669 -1.63609,-1.46802 z m -7.75677,-26.33572 c 0.80536,-0.75635 4.95092,-2.52514 9.21235,-3.93064 7.36957,-2.43063 7.69619,-2.45854 6.68618,-0.57132 -1.82252,3.40542 -7.02379,5.86934 -12.39853,5.87339 -4.25554,0.003 -4.75523,-0.19259 -3.5,-1.37143 z m -9.73544,-1.28473 c -1.72009,-4.48248 19.33004,-15.32525 24.32528,-12.52978 0.98665,0.55216 -0.67909,1.75852 -5.53419,4.00799 -3.82012,1.76994 -8.82103,4.78489 -11.11313,6.69988 -4.59198,3.83649 -6.71187,4.33952 -7.67796,1.82191 z M 122,192.18709 c 0,-2.62732 5.47642,-7.47048 8.7207,-7.71229 1.52862,-0.11393 6.50474,-0.77103 11.05806,-1.46022 9.67776,-1.46482 13.31419,-0.9438 17.91733,2.56718 4.54251,3.46475 5.79169,2.80661 5.44275,-2.86758 -0.24021,-3.90627 0.54141,-6.31245 4.91847,-15.14121 l 5.20407,-10.49687 -0.55162,-7.78805 c -0.3034,-4.28343 -0.86469,-8.80055 -1.24732,-10.03805 -1.34293,-4.34325 2.10408,-2.3698 6.52867,3.73772 4.12452,5.69334 4.40624,5.89 5.73004,4 1.69909,-2.42578 4.05912,-2.53036 7.21525,-0.31971 l 2.38141,1.668 -0.59536,-8.918 c -0.32745,-4.90491 -1.29896,-10.88709 -2.15891,-13.29374 -2.13594,-5.97765 -1.97624,-7.80248 0.93789,-10.71661 2.31048,-2.31048 2.39463,-2.70797 1.10238,-5.20691 -3.35815,-6.49395 -9.05266,-8.55528 -14.41399,-5.21766 -3.55062,2.21039 -5.77539,6.47525 -7.11312,13.63576 -0.45966,2.46044 -1.10307,4.74085 -1.4298,5.06758 -0.32672,0.32673 -2.36612,-1.00692 -4.532,-2.96366 -6.12212,-5.53097 -7.37039,-5.96176 -13.82008,-4.76947 -10.49205,1.93956 -10.73172,1.84718 -14.14802,-5.4533 l -3.04172,-6.5 -4.80254,0.0211 c -7.20822,0.0317 -16.76193,3.89605 -26.73313,10.81332 C 96.216488,120.62904 88.471028,124 83.509628,124 c -1.170053,0 -2.949549,0.60119 -3.954436,1.33598 -1.746822,1.27731 -1.688887,1.6943 1.319107,9.49429 4.053548,10.5112 8.01295,18.85356 9.473049,19.95947 0.633959,0.48017 4.865152,1.69753 9.402652,2.70523 4.5375,1.0077 8.25,2.04647 8.25,2.30836 0,1.2225 -3.77937,3.13629 -6.25,3.16487 -1.5125,0.0175 -2.75,0.51129 -2.75,1.09734 0,1.77519 6.91189,16.17819 9.69959,20.212 2.77154,4.01045 9.82011,9.72246 11.99741,9.72246 0.71665,0 1.303,-0.81581 1.303,-1.81291 z m 1.14366,-95.887949 c 3.2104,-8.010575 3.19945,-18.893194 -0.0257,-25.555505 C 121.85495,68.134636 120.18673,66 119.41079,66 c -1.85254,0 -1.78067,1.396215 0.2728,5.29966 1.17955,2.242207 1.69826,5.745112 1.73259,11.70034 0.0416,7.223492 -0.36137,9.381668 -2.68359,14.370843 -1.50292,3.228967 -2.71837,6.828967 -2.70099,7.999997 0.0299,2.01694 0.15694,1.98681 2.40977,-0.5717 1.30799,-1.48547 3.42402,-5.310472 4.70229,-8.499999 z M 153.58556,365.4427 C 152.42501,364.28216 152,361.88171 152,356.48759 c 0,-4.47896 -0.45147,-7.64858 -1.15102,-8.08092 -0.68875,-0.42567 -2.98346,1.41554 -5.71368,4.5845 -4.98453,5.78553 -13.38039,10.47316 -20.7329,11.57574 -8.25103,1.23732 -20.3931,-3.08367 -31.611703,-11.24962 -5.189726,-3.77758 -25.723347,-30.65013 -28.88975,-37.80831 -2.361893,-5.33945 -4.28273,-25.3551 -2.810834,-29.28967 C 61.649616,284.72369 64.99158,280.575 68.5167,277 c 7.093541,-7.19391 7.701082,-8.51027 13.122397,-28.43214 1.935564,-7.11268 5.029072,-15.93033 6.874463,-19.59479 1.84539,-3.66445 4.022045,-10.194 4.837009,-14.51011 l 1.481755,-7.84746 -5.416162,-6.52517 c -7.445127,-8.96959 -7.358935,-10.90968 0.833838,-18.76872 3.4375,-3.29747 6.907907,-6.2131 7.712016,-6.47917 1.25281,-0.41456 1.276223,-1.11759 0.163615,-4.91311 -1.802886,-6.15032 -3.778087,-8.91221 -7.235665,-10.11753 C 87.636277,158.67756 86.244561,156.37457 80.730446,143 74.898644,128.85488 73,121.51243 73,113.10476 73,96.769531 79.703081,81.431698 92.453117,68.592596 104.54896,56.412261 115.87056,51.097096 133.06653,49.525775 c 18.89828,-1.726875 34.04564,5.014202 46.48596,20.687798 2.82975,3.565206 3.10732,3.678243 6.94751,2.829279 14.3904,-3.181336 18.16002,-4.311381 19.96676,-5.985577 2.71959,-2.520089 21.77323,-3.890396 28.53324,-2.052066 2.475,0.673056 8.40234,1.401005 13.17186,1.617665 14.72131,0.668728 19.53999,2.766978 34.06374,14.832755 14.53557,12.075597 18.34989,16.636158 22.86793,27.341841 2.63859,6.25224 3.33246,9.41126 3.68519,16.77769 0.40247,8.40526 0.20626,9.61847 -2.65804,16.43571 -1.70092,4.04831 -2.98865,7.42215 -2.86163,7.49742 0.12702,0.0753 2.48095,0.95088 5.23095,1.9458 2.75,0.99492 9.5,4.608 15,8.02906 5.5,3.42105 12.21779,7.47789 14.92842,9.01519 2.71064,1.5373 8.63897,6.38581 13.17407,10.77447 4.53511,4.38865 10.19232,9.11067 12.57158,10.49337 6.23905,3.62581 10.35462,7.78513 15.56834,15.73382 2.5253,3.85 8.31171,10.84928 12.85869,15.55396 6.52969,6.75614 9.14039,10.38282 12.42164,17.25562 3.04559,6.37921 5.31749,9.65474 8.5122,12.27256 4.87448,3.99427 7.87924,8.52858 9.40396,14.19095 0.56324,2.09172 2.84877,6.71099 5.07894,10.26502 5.79616,9.23685 8.25606,14.93783 11.99746,27.80492 2.40685,8.27742 4.17783,12.39582 6.55277,15.23845 1.78999,2.14248 4.20302,5.4301 5.36229,7.30583 4.02846,6.51819 14.59729,37.79526 13.62637,40.32545 C 465.15789,366.75213 442.82301,367 349.56657,367 240.58741,367 234.01844,366.9013 233.15016,365.25 231.06821,361.29066 226.00965,340.76558 224.58575,330.5 221.18228,305.96264 219,287.01286 219,281.99628 c 0,-5.20312 -0.038,-5.27185 -1.956,-3.5361 -3.3357,3.01877 -3.46131,9.22469 -0.64438,31.83789 2.37945,19.10133 2.56479,22.93575 1.87075,38.70193 l -0.77037,17.5 -31.16444,0.26413 c -27.34723,0.23177 -31.35866,0.0699 -32.75,-1.32143 z m 358.40191,-50.95534 -6.45476,-6.51265 50.22941,-50.23735 50.2294,-50.23736 -49.97415,-50 C 528.53158,130 506.03349,107.03591 506.02161,106.4687 505.99337,105.12108 517.23666,94 518.62732,94 c 0.58813,0 23.46605,22.55737 50.83982,50.12748 l 49.7705,50.12748 50.13486,-50.12748 C 696.94667,116.55737 719.86248,94 720.29652,94 c 1.08591,0 10.64646,9.02493 11.7552,11.09664 0.87058,1.6267 -12.46557,15.46775 -88.08035,91.41506 l -10.96349,11.01169 49.49606,49.59324 C 709.72677,284.39292 732,307.35174 732,308.13624 c 0,1.88632 -11.72451,13.45054 -12.72385,12.54989 -0.42688,-0.38472 -23.10039,-23.03437 -50.38557,-50.33254 l -49.60942,-49.63304 -49.81179,50.13973 C 542.07288,298.43712 519.38412,321 519.0499,321 c -0.33422,0 -3.51232,-2.93069 -7.06243,-6.51264 z m 98.12788,-13.75123 c -5.73285,-2.9237 -8.9034,-7.22222 -10.32457,-13.99769 -0.98635,-4.70245 -0.90103,-6.16124 0.58846,-10.0614 C 603.88756,267.49063 610.00138,263 619,263 c 8.11416,0 14.56815,4.15605 18.48957,11.90636 2.75747,5.44989 1.75113,14.97502 -2.09256,19.80645 -6.30383,7.92376 -16.699,10.40039 -25.28166,6.02332 z m 0.88524,-62.23673 8.45644,-8.50059 8.24078,8.19797 c 4.53242,4.50888 8.1211,8.31765 7.97482,8.46392 -0.14627,0.14628 -2.45397,-0.39254 -5.12822,-1.19737 -6.2483,-1.88046 -15.88862,-1.86921 -22.13548,0.0258 -2.69991,0.81904 -5.124,1.49404 -5.38685,1.5 -0.26286,0.006 3.32747,-3.81445 7.97851,-8.48978 z m -53.73637,-13.84231 c -4.6998,-4.51638 -5.46151,-5.73489 -4.92392,-7.87683 C 553.52361,212.06559 577.16498,195 582.51302,195 c 1.18366,0 4.68768,2.66662 8.3206,6.33213 7.17789,7.24226 7.24144,6.98064 -2.85581,11.75589 -6.57428,3.10914 -10.86309,6.06534 -18.33596,12.63864 C 566.96986,228.077 564.34279,230 563.80391,230 c -0.53889,0 -3.48174,-2.40431 -6.53969,-5.34291 z m 112.62657,1.55465 C 661.70291,219.14745 657.51699,216.2641 650,212.51058 c -4.125,-2.05977 -7.70026,-3.93004 -7.94503,-4.15617 -0.24477,-0.22613 2.63262,-3.51257 6.39421,-7.3032 7.8043,-7.86456 6.97543,-7.81322 18.3958,-1.1395 C 674.37389,204.31138 687,215.42256 687,217.64845 687,219.45521 677.17855,230 675.49573,230 c -0.66778,0 -3.19001,-1.70472 -5.60494,-3.78826 z M 531.21584,198.71855 C 528.15044,195.6146 526,192.54172 526,191.26537 c 0,-1.45421 2.37996,-4.22011 7.20344,-8.37155 6.631,-5.70713 21.181,-15.89382 22.70168,-15.89382 0.35669,0 3.71644,3.09161 7.46612,6.87024 l 6.81759,6.87024 -6.34441,3.81484 c -8.04814,4.83927 -11.84491,7.60493 -19.45532,14.17175 -3.361,2.90011 -6.52637,5.27293 -7.03416,5.27293 -0.50779,0 -3.27039,-2.37665 -6.1391,-5.28145 z M 693.5,197.9228 c -3.85,-3.33868 -10.96352,-8.58711 -15.80783,-11.66318 l -8.80784,-5.59287 6.7194,-6.77128 6.71939,-6.77128 3.58844,1.87034 C 695.62665,174.05816 713,188.73662 713,191.88111 c 0,1.76786 -9.85448,12.12141 -11.53145,12.11544 -0.5327,-0.002 -4.11855,-2.73508 -7.96855,-6.07375 z M 505.24964,173.20671 c -3.25615,-2.91899 -5.25023,-5.52575 -5.25,-6.86308 C 500.00024,162.77274 525.2888,141 529.43572,141 c 1.27735,0 14.18882,12.74063 13.50829,13.32956 -0.24421,0.21133 -3.60866,2.44984 -7.47656,4.97445 -3.8679,2.52462 -10.51424,7.76401 -14.76963,11.6431 -4.2554,3.87909 -8.29075,7.03341 -8.96745,7.0096 -0.6767,-0.0238 -3.59303,-2.16132 -6.48073,-4.75 z m 213.48478,-1.65851 c -3.72107,-3.50097 -10.35857,-8.7299 -14.75,-11.61986 C 699.59299,157.03838 696,154.39674 696,154.05804 696,153.13963 708.42359,141 709.36348,141 712.97227,141 739,163.10367 739,166.16838 c 0,2.04314 -9.96079,11.81807 -12,11.77609 -0.825,-0.017 -4.54451,-2.8953 -8.26558,-6.39627 z m -121.45477,-8.76818 c -4.22017,-4.24598 -7.47202,-7.92021 -7.22634,-8.16494 C 591.49722,153.17675 608.91455,151 618.97948,151 c 10.3131,0 28.5323,2.17845 29.93289,3.57904 0.27293,0.27292 -2.87094,3.8634 -6.98638,7.97884 l -7.48261,7.48261 -14.74535,0.22976 -14.74534,0.22975 z m -30.12363,-30.12295 -7.32364,-7.37284 3.9821,-1.59332 c 7.28522,-2.91497 23.53886,-6.70551 35.68552,-8.32228 16.08884,-2.14149 35.8058,-1.35303 52.07747,2.08253 13.16154,2.77889 25.6278,6.66466 26.12016,8.14172 0.17369,0.52109 -2.72472,3.95297 -6.44091,7.6264 l -6.75672,6.67898 -7,-1.96342 c -19.79855,-5.55328 -46.54857,-6.16191 -68.5,-1.55855 -6.325,1.32639 -12.17958,2.69108 -13.01017,3.03263 -1.01298,0.41654 -3.92132,-1.80635 -8.83381,-6.75185 z" />
  </g>
</svg>
